<svg id="svg" version="1.1" xmlns="http://www.w3.org/2000/svg" xmlns:xlink="http://www.w3.org/1999/xlink" width="400" height="400" viewBox="0, 0, 400,400"><g id="svgg"><path id="path0" d="M194.900 27.800 L 190.303 32.400 183.752 32.400 L 177.200 32.400 177.200 38.948 L 177.200 45.497 172.552 50.148 L 167.903 54.800 172.552 59.452 L 177.200 64.103 177.200 66.875 L 177.200 69.646 176.700 69.318 L 176.200 68.991 176.200 73.695 L 176.200 78.400 182.284 78.400 C 188.918 78.400,189.347 78.357,188.464 77.775 L 187.900 77.403 189.103 77.401 L 190.305 77.400 193.203 80.322 L 196.100 83.245 194.200 81.899 C 193.155 81.158,191.760 80.047,191.100 79.429 C 190.440 78.811,192.058 80.484,194.695 83.148 L 199.489 87.992 200.140 87.361 C 200.648 86.869,200.741 86.670,200.565 86.458 C 200.286 86.121,200.310 86.093,205.293 81.050 L 209.096 77.200 215.648 77.200 L 222.200 77.200 222.200 70.652 L 222.200 64.103 226.848 59.452 L 231.497 54.800 226.848 50.148 L 222.200 45.497 222.200 38.948 L 222.200 32.400 215.648 32.400 L 209.097 32.400 204.500 27.800 C 201.972 25.270,199.812 23.200,199.700 23.200 C 199.588 23.200,197.428 25.270,194.900 27.800 M214.752 33.400 L 221.000 33.400 221.000 39.648 L 221.000 45.897 225.448 50.348 L 229.897 54.800 225.448 59.252 L 221.000 63.703 221.000 69.952 L 221.000 76.200 214.752 76.200 L 208.503 76.200 204.152 80.548 L 199.800 84.897 195.348 80.448 L 190.897 76.000 188.417 76.000 L 185.936 76.000 184.877 75.200 C 183.822 74.404,183.809 74.400,182.009 74.400 L 180.200 74.400 180.200 73.110 L 180.200 71.819 179.300 71.200 L 178.400 70.581 178.400 67.059 L 178.400 63.538 174.000 59.251 L 169.601 54.964 174.000 50.441 L 178.400 45.918 178.400 39.659 L 178.400 33.400 184.652 33.400 L 190.903 33.400 195.300 29.000 L 199.697 24.600 204.100 29.000 L 208.503 33.400 214.752 33.400 M195.600 31.700 L 191.704 35.600 186.102 35.600 L 180.500 35.600 180.556 41.142 L 180.613 46.684 176.558 50.742 L 172.504 54.800 176.552 58.852 L 180.600 62.904 180.600 68.452 L 180.600 74.000 186.148 74.000 L 191.696 74.000 195.743 78.043 L 199.790 82.086 203.712 78.043 L 207.635 74.000 213.345 74.000 L 219.055 74.000 218.948 68.450 L 218.842 62.900 222.869 58.850 L 226.896 54.800 222.848 50.748 L 218.800 46.696 218.800 41.148 L 218.800 35.600 213.248 35.600 L 207.696 35.600 203.800 31.700 C 201.657 29.555,199.812 27.800,199.700 27.800 C 199.588 27.800,197.743 29.555,195.600 31.700 M201.659 42.975 L 203.599 48.950 209.916 49.125 L 216.232 49.300 211.216 52.989 C 208.457 55.018,206.200 56.767,206.200 56.875 C 206.200 56.983,207.061 59.719,208.113 62.956 C 209.165 66.192,209.998 68.863,209.963 68.892 C 209.928 68.920,207.613 67.291,204.818 65.271 C 202.023 63.252,199.673 61.600,199.595 61.600 C 199.517 61.600,197.170 63.259,194.380 65.287 C 191.590 67.315,189.271 68.937,189.226 68.893 C 189.181 68.848,190.023 66.102,191.097 62.790 C 192.170 59.478,192.970 56.699,192.874 56.615 C 192.778 56.531,190.413 54.805,187.617 52.781 L 182.534 49.100 189.059 49.047 L 195.585 48.995 197.531 42.997 C 198.601 39.699,199.531 37.000,199.597 37.000 C 199.664 37.000,200.592 39.689,201.659 42.975 M62.500 60.184 C 61.950 60.268,61.591 60.351,61.701 60.369 C 61.812 60.386,63.072 60.537,64.501 60.704 C 120.070 67.202,166.715 119.899,190.103 202.600 C 193.177 213.469,199.200 239.486,199.200 241.893 C 199.200 241.952,198.314 242.000,197.231 242.000 L 195.262 242.000 193.083 239.450 C 180.454 224.671,161.375 212.747,138.500 205.338 C 115.702 197.954,87.993 194.432,70.324 196.672 C 68.961 196.845,68.338 196.857,68.293 196.711 C 68.257 196.595,65.738 166.215,62.695 129.200 C 59.651 92.185,57.120 61.857,57.069 61.805 C 56.975 61.708,57.083 70.568,57.405 89.200 C 57.503 94.865,57.910 124.475,58.309 155.000 C 58.709 185.525,59.065 210.530,59.100 210.566 C 59.136 210.602,60.096 210.445,61.233 210.216 C 70.164 208.421,86.987 207.669,98.400 208.556 C 121.842 210.378,143.612 215.307,159.800 222.458 C 177.186 230.139,185.116 234.516,192.157 240.320 L 194.073 241.900 191.345 241.956 L 188.618 242.011 185.259 240.330 C 173.655 234.521,153.599 227.756,138.400 224.524 C 110.017 218.488,75.611 218.221,55.000 223.876 C 53.625 224.254,52.467 224.531,52.428 224.492 C 52.361 224.428,48.251 101.575,48.179 97.500 C 48.150 95.824,48.136 95.769,47.981 96.700 C 47.850 97.490,43.367 235.890,43.393 238.336 L 43.400 238.972 46.050 238.082 C 55.377 234.948,67.443 232.460,80.300 231.021 C 110.797 227.606,149.837 231.734,177.300 241.275 L 179.300 241.970 109.050 241.985 L 38.800 242.000 38.800 273.200 L 38.800 304.400 200.000 304.400 L 361.200 304.400 361.200 273.200 L 361.200 242.000 290.950 241.985 L 220.700 241.970 222.700 241.275 C 252.894 230.785,294.053 227.148,327.400 232.023 C 337.175 233.452,346.518 235.584,353.950 238.082 L 356.600 238.972 356.607 238.336 C 356.634 235.897,352.150 97.490,352.019 96.700 C 351.864 95.769,351.850 95.824,351.821 97.500 C 351.749 101.575,347.639 224.428,347.572 224.492 C 347.533 224.531,346.375 224.254,345.000 223.876 C 318.887 216.711,276.107 219.013,243.600 229.332 C 229.018 233.962,222.503 236.444,214.741 240.330 L 211.382 242.011 208.655 241.956 L 205.927 241.900 207.843 240.320 C 214.884 234.516,222.814 230.139,240.200 222.458 C 267.599 210.355,312.017 204.838,338.767 210.216 C 339.904 210.445,340.864 210.602,340.900 210.566 C 340.935 210.530,341.242 188.720,341.582 162.100 C 341.922 135.480,342.332 105.510,342.493 95.500 C 342.655 85.490,342.843 73.790,342.911 69.500 C 342.979 65.210,342.990 61.745,342.936 61.800 C 342.882 61.855,340.348 92.185,337.305 129.200 C 334.262 166.215,331.743 196.595,331.707 196.711 C 331.662 196.857,331.039 196.845,329.676 196.672 C 312.007 194.432,284.298 197.954,261.500 205.338 C 238.625 212.747,219.546 224.671,206.917 239.450 L 204.738 242.000 202.769 242.000 C 201.686 242.000,200.800 241.952,200.800 241.893 C 200.800 239.854,206.278 215.757,209.029 205.700 C 232.132 121.214,279.223 67.263,335.597 60.693 C 337.077 60.520,338.319 60.348,338.357 60.309 C 338.808 59.859,325.786 59.984,317.782 60.508 C 260.657 64.243,217.752 86.388,200.872 120.850 C 200.454 121.703,200.062 122.400,200.000 122.400 C 199.938 122.400,199.546 121.703,199.128 120.850 C 182.242 86.377,139.467 64.300,82.200 60.502 C 76.970 60.155,64.054 59.947,62.500 60.184 M255.413 250.407 C 255.915 250.676,255.902 251.180,255.363 252.288 L 254.927 253.186 253.796 253.068 C 252.701 252.954,251.200 253.375,251.200 253.796 C 251.200 254.302,254.290 254.732,255.650 254.416 C 256.533 254.211,256.521 254.162,255.957 255.736 L 255.513 256.973 254.314 257.184 C 252.641 257.478,251.161 258.258,250.178 259.361 L 249.343 260.300 249.465 259.371 C 249.532 258.860,249.738 258.124,249.923 257.735 C 250.255 257.039,250.253 257.020,249.730 256.399 C 247.578 253.841,252.376 248.782,255.413 250.407 M243.728 257.649 L 245.155 258.998 243.580 260.418 L 242.004 261.839 241.352 261.291 C 240.993 260.990,240.084 260.173,239.330 259.476 L 237.961 258.209 239.530 256.721 L 241.100 255.234 241.700 255.767 C 242.030 256.060,242.942 256.907,243.728 257.649 M346.400 258.916 C 346.400 259.060,343.532 261.707,343.336 261.744 C 343.206 261.769,342.245 260.978,341.200 259.988 L 339.300 258.188 340.874 256.701 L 342.448 255.215 344.424 257.042 C 345.511 258.047,346.400 258.891,346.400 258.916 M266.838 257.701 C 266.725 258.666,267.091 259.148,269.205 260.815 C 270.308 261.685,270.950 262.323,270.866 262.467 C 270.640 262.852,268.964 265.067,268.535 265.548 C 268.232 265.887,268.071 265.942,267.869 265.775 C 267.663 265.603,267.273 265.902,266.113 267.119 L 264.623 268.684 265.713 270.033 C 266.313 270.776,266.985 271.691,267.207 272.067 L 267.611 272.752 266.440 275.926 L 265.269 279.100 259.435 279.153 C 254.009 279.202,253.600 279.182,253.600 278.859 C 253.600 277.171,254.479 272.483,254.843 272.228 C 255.791 271.563,259.004 268.713,258.954 268.580 C 258.924 268.500,258.367 268.022,257.715 267.517 L 256.530 266.600 255.993 267.242 C 255.328 268.038,254.966 267.863,253.407 265.989 C 251.361 263.531,251.340 261.327,253.336 258.650 C 254.301 257.356,256.360 258.759,260.152 263.294 C 261.992 265.495,261.782 265.420,262.556 264.142 C 263.284 262.941,263.322 262.750,262.900 262.400 C 262.126 261.757,262.504 261.015,264.650 258.969 C 266.987 256.739,266.947 256.762,266.838 257.701 M104.758 266.500 L 104.900 272.300 105.938 272.404 C 106.510 272.462,109.570 272.462,112.738 272.404 L 118.500 272.300 117.593 271.395 C 116.666 270.469,115.601 270.000,114.427 270.000 C 113.616 270.000,113.582 270.151,115.128 266.855 C 116.621 263.673,116.445 263.829,119.078 263.383 C 126.687 262.094,130.362 265.994,126.433 271.188 C 125.980 271.787,125.630 272.293,125.655 272.314 C 125.680 272.334,128.648 272.416,132.250 272.495 L 138.800 272.639 138.793 271.470 C 138.776 268.405,138.077 264.017,137.525 263.506 C 136.731 262.770,136.865 262.269,138.534 259.732 C 140.140 257.291,140.399 257.044,140.401 257.950 C 140.403 258.979,143.699 261.200,145.225 261.200 C 145.466 261.200,145.486 261.136,144.459 263.750 C 143.830 265.352,143.670 265.600,143.262 265.600 C 142.849 265.600,142.809 265.666,142.934 266.150 C 143.670 269.017,143.020 273.296,141.177 277.724 L 140.563 279.200 130.931 279.198 L 121.300 279.196 120.945 278.352 L 120.590 277.508 119.845 278.364 L 119.100 279.220 110.133 279.160 L 101.165 279.100 100.664 278.518 C 100.140 277.908,100.122 277.914,99.586 278.850 C 99.403 279.170,98.909 279.200,93.779 279.200 L 88.171 279.200 87.452 280.800 C 86.571 282.757,87.156 282.849,82.300 279.995 C 80.050 278.673,78.094 277.547,77.954 277.494 C 77.809 277.439,77.455 277.786,77.132 278.299 L 76.563 279.200 72.011 279.200 L 67.458 279.200 66.421 281.550 C 64.704 285.441,64.513 285.676,62.139 286.804 C 52.687 291.294,46.571 286.516,49.698 277.084 C 50.159 275.694,51.985 271.673,51.693 272.692 C 50.045 278.433,52.218 282.758,56.528 282.318 C 58.658 282.101,62.153 280.558,61.943 279.928 C 61.806 279.519,59.350 278.811,58.050 278.805 C 56.528 278.799,56.519 279.096,58.147 275.557 L 59.500 272.613 64.200 272.606 C 66.785 272.602,70.841 272.540,73.213 272.469 L 77.527 272.339 78.270 270.895 C 79.812 267.899,82.794 265.815,85.786 265.642 C 88.855 265.464,89.452 266.121,89.566 269.804 L 89.646 272.346 94.514 272.490 C 97.191 272.570,99.476 272.577,99.591 272.506 C 99.727 272.421,99.802 270.623,99.805 267.338 L 99.810 262.300 102.155 259.816 L 104.500 257.332 104.558 259.016 C 104.591 259.942,104.681 263.310,104.758 266.500 M152.109 260.542 L 152.644 263.577 152.237 264.148 C 151.849 264.692,151.839 264.860,152.020 267.585 C 152.423 273.663,151.531 276.687,148.463 279.647 L 147.688 280.395 147.660 276.847 C 147.644 274.896,147.445 270.972,147.218 268.127 L 146.805 262.954 149.127 260.168 C 150.404 258.636,151.477 257.410,151.512 257.445 C 151.547 257.480,151.816 258.874,152.109 260.542 M213.401 257.950 C 213.403 258.979,216.699 261.200,218.225 261.200 C 218.466 261.200,218.486 261.134,217.453 263.766 C 216.792 265.449,216.675 265.623,216.262 265.544 C 215.828 265.461,215.812 265.500,215.941 266.278 C 216.506 269.669,216.112 272.613,214.555 276.650 L 213.572 279.200 206.977 279.200 L 200.381 279.200 200.041 278.585 C 199.311 277.269,199.281 277.258,198.961 278.216 L 198.667 279.100 194.840 279.154 L 191.013 279.209 190.583 278.366 L 190.153 277.523 189.582 278.211 C 189.268 278.590,189.008 278.965,189.005 279.045 C 189.002 279.125,187.595 279.215,185.877 279.245 L 182.754 279.300 182.379 280.778 C 181.686 283.510,181.249 284.199,179.680 285.037 C 169.368 290.545,162.864 284.523,167.220 273.500 C 168.358 270.621,168.645 270.178,168.450 271.600 C 167.515 278.440,169.317 281.479,173.892 280.780 C 175.067 280.600,178.168 279.227,179.154 278.450 L 179.608 278.093 179.132 276.696 C 178.573 275.052,177.555 272.966,176.865 272.046 L 176.374 271.393 178.137 269.310 C 179.107 268.165,179.990 267.251,180.100 267.280 C 180.435 267.367,181.412 269.093,182.117 270.844 L 182.785 272.500 185.392 272.556 C 186.918 272.588,188.000 272.534,188.000 272.424 C 188.000 272.322,187.730 271.636,187.400 270.900 C 187.070 270.164,186.800 269.479,186.800 269.377 C 186.800 269.159,189.836 265.169,189.930 265.263 C 189.965 265.298,190.706 266.896,191.577 268.813 L 193.161 272.300 194.980 272.358 C 197.079 272.424,197.066 272.444,195.981 270.820 L 195.163 269.594 196.808 267.390 C 198.742 264.797,198.682 264.795,200.047 267.547 C 200.771 269.010,200.883 269.422,200.961 270.907 L 201.050 272.600 206.425 272.600 L 211.800 272.600 211.792 271.550 C 211.767 268.386,211.063 263.941,210.524 263.549 C 209.672 262.927,209.833 262.317,211.534 259.732 C 213.140 257.291,213.399 257.044,213.401 257.950 M277.802 260.760 C 278.258 263.607,278.258 263.623,277.868 264.160 C 277.521 264.640,277.493 264.890,277.622 266.400 C 278.188 273.001,277.486 275.977,274.647 279.007 L 273.300 280.443 273.269 276.372 C 273.252 274.132,273.063 270.189,272.849 267.609 L 272.459 262.919 274.768 260.153 C 276.262 258.363,277.123 257.477,277.210 257.643 C 277.283 257.784,277.549 259.187,277.802 260.760 M335.016 272.342 C 335.411 272.531,336.818 272.555,340.990 272.445 L 346.447 272.300 345.555 270.970 L 344.663 269.641 346.249 267.570 C 348.155 265.081,348.012 265.148,348.880 266.337 C 351.074 269.344,351.015 272.878,348.683 278.156 L 348.217 279.212 339.512 279.156 L 330.807 279.100 330.154 278.446 L 329.500 277.793 329.447 270.146 L 329.395 262.500 331.847 259.916 L 334.300 257.332 334.400 264.714 L 334.500 272.095 335.016 272.342 M5.000 262.732 C 5.000 262.805,8.105 269.766,11.900 278.200 C 15.695 286.634,18.800 293.650,18.800 293.791 C 18.800 293.932,15.695 300.945,11.900 309.377 C 8.105 317.809,5.000 324.773,5.000 324.854 C 5.000 324.934,16.475 325.000,30.500 325.000 L 56.000 325.000 56.000 318.400 L 56.000 311.800 43.700 311.800 L 31.400 311.800 31.400 287.200 L 31.400 262.600 18.200 262.600 C 10.940 262.600,5.000 262.660,5.000 262.732 M368.600 287.200 L 368.600 311.800 356.300 311.800 L 344.000 311.800 344.000 318.400 L 344.000 325.000 369.500 325.000 C 383.525 325.000,395.000 324.934,395.000 324.854 C 395.000 324.773,391.895 317.809,388.100 309.377 C 384.305 300.945,381.200 293.932,381.200 293.791 C 381.200 293.650,384.305 286.634,388.100 278.200 C 391.895 269.766,395.000 262.805,395.000 262.732 C 395.000 262.660,389.060 262.600,381.800 262.600 L 368.600 262.600 368.600 287.200 M230.875 268.227 L 233.316 272.500 239.108 272.424 C 242.294 272.383,244.939 272.314,244.986 272.272 C 245.034 272.229,244.693 271.644,244.228 270.971 C 243.764 270.298,243.410 269.684,243.442 269.605 C 243.600 269.216,246.523 265.413,246.668 265.407 C 246.983 265.394,247.622 266.298,248.362 267.800 C 249.654 270.425,249.475 272.615,247.560 277.650 L 246.971 279.200 239.291 279.200 L 231.612 279.200 231.156 278.402 C 230.595 277.420,230.605 277.420,230.036 278.415 L 229.572 279.227 225.127 279.164 C 220.299 279.095,220.025 279.034,219.268 277.880 C 218.548 276.780,218.980 274.209,220.336 271.528 L 220.925 270.362 221.157 271.131 C 221.511 272.309,221.921 272.459,225.071 272.562 L 227.842 272.653 227.596 272.176 C 227.460 271.914,226.903 270.956,226.359 270.047 L 225.369 268.393 226.111 267.047 C 227.883 263.827,228.050 263.570,228.241 263.761 C 228.348 263.868,229.533 265.878,230.875 268.227 M322.960 265.577 C 325.089 267.116,326.279 269.199,326.287 271.400 C 326.292 272.793,325.025 277.258,324.174 278.849 C 323.884 279.390,313.516 279.391,313.678 278.850 C 313.736 278.657,314.114 277.173,314.517 275.550 L 315.250 272.600 318.825 272.600 C 320.791 272.600,322.400 272.551,322.400 272.490 C 322.400 271.521,319.662 269.200,318.520 269.200 C 317.935 269.200,318.019 268.810,319.094 266.521 L 320.186 264.199 321.302 264.693 C 321.917 264.964,322.663 265.362,322.960 265.577 M310.890 265.083 C 312.199 265.630,312.213 265.995,311.074 269.754 L 310.573 271.408 310.037 271.035 C 308.637 270.061,307.133 269.964,305.595 270.750 C 304.059 271.534,304.088 271.571,307.349 272.975 C 310.822 274.470,311.076 274.652,310.932 275.541 C 310.793 276.397,309.455 279.372,307.967 282.130 L 306.764 284.361 305.200 285.076 C 294.814 289.823,289.087 285.384,292.414 275.165 C 292.943 273.539,294.370 270.509,294.092 271.600 C 293.500 273.928,293.821 277.886,294.712 279.246 C 296.047 281.285,299.883 281.427,303.166 279.559 C 304.438 278.835,304.505 278.910,301.500 277.707 C 297.762 276.211,297.663 275.891,299.691 271.876 C 302.423 266.466,307.227 263.552,310.890 265.083 M83.214 271.313 C 81.823 271.917,81.843 271.976,83.843 273.151 C 84.864 273.751,85.813 274.287,85.950 274.343 C 86.459 274.547,86.275 271.675,85.755 271.311 C 85.200 270.923,84.112 270.923,83.214 271.313 M260.507 271.760 L 259.514 272.500 261.081 272.559 C 262.986 272.630,263.065 272.570,262.190 271.704 L 261.500 271.020 260.507 271.760 M299.033 292.000 C 299.130 292.000,299.589 291.651,300.054 291.225 L 300.900 290.449 302.895 292.326 L 304.890 294.203 303.295 295.674 L 301.700 297.145 300.812 296.386 L 299.923 295.627 299.008 296.394 L 298.092 297.160 297.396 296.551 C 297.013 296.216,296.087 295.356,295.337 294.640 L 293.974 293.338 295.537 291.896 L 297.100 290.455 297.978 291.227 C 298.461 291.652,298.936 292.000,299.033 292.000 M56.300 293.400 C 56.402 293.400,56.853 293.038,57.304 292.596 L 58.123 291.792 60.169 293.646 L 62.215 295.500 60.692 296.950 C 58.919 298.639,59.032 298.608,58.001 297.677 L 57.200 296.953 56.399 297.677 C 55.357 298.619,55.504 298.667,53.306 296.659 C 51.029 294.579,51.072 294.963,52.922 293.205 L 54.444 291.760 55.279 292.580 C 55.739 293.031,56.198 293.400,56.300 293.400 M98.400 311.966 C 98.400 312.449,109.239 321.053,115.300 325.382 C 140.236 343.191,172.670 357.971,197.833 362.993 L 199.967 363.418 203.029 362.801 C 231.545 357.048,268.555 339.159,293.800 318.926 C 297.277 316.140,302.000 312.135,302.000 311.974 C 302.000 311.878,298.820 311.800,294.933 311.800 L 287.867 311.800 285.983 313.257 C 261.689 332.048,227.744 348.348,201.976 353.596 L 199.851 354.029 196.676 353.292 C 170.113 347.133,138.158 331.622,114.924 313.610 L 112.589 311.800 105.495 311.800 C 101.593 311.800,98.400 311.875,98.400 311.966 M127.600 311.960 C 127.600 312.476,141.369 321.119,147.900 324.703 C 164.088 333.588,190.351 343.878,199.500 344.921 C 204.137 345.450,229.520 336.338,245.100 328.552 C 254.356 323.927,272.800 312.892,272.800 311.980 C 272.800 311.874,243.046 311.800,200.200 311.800 C 160.270 311.800,127.600 311.872,127.600 311.960 M82.438 319.204 C 79.777 321.512,77.558 323.400,77.505 323.400 C 77.452 323.400,74.955 321.914,71.955 320.098 C 68.955 318.283,66.477 316.868,66.448 316.955 C 66.419 317.042,67.513 319.746,68.878 322.964 L 71.360 328.816 66.480 333.041 C 63.796 335.365,61.640 337.307,61.689 337.356 C 61.738 337.405,64.621 337.198,68.096 336.896 C 71.570 336.594,74.462 336.395,74.521 336.454 C 74.580 336.513,75.707 339.113,77.026 342.231 C 78.345 345.349,79.499 347.976,79.591 348.069 C 79.757 348.237,79.901 347.676,81.715 339.800 C 82.234 337.545,82.669 335.684,82.681 335.666 C 82.693 335.647,85.582 335.387,89.101 335.088 C 92.621 334.789,95.537 334.512,95.583 334.473 C 95.697 334.373,96.079 334.614,90.300 331.136 C 87.440 329.414,84.976 327.924,84.825 327.826 C 84.600 327.678,84.809 326.527,85.992 321.406 C 86.785 317.975,87.398 315.131,87.354 315.088 C 87.311 315.044,85.098 316.896,82.438 319.204 M312.599 315.119 C 312.599 315.219,313.240 318.078,314.024 321.473 C 315.194 326.539,315.400 327.678,315.175 327.826 C 315.024 327.924,312.560 329.414,309.700 331.136 C 303.921 334.614,304.303 334.373,304.417 334.473 C 304.463 334.512,307.379 334.789,310.899 335.088 C 314.418 335.387,317.307 335.647,317.319 335.666 C 317.331 335.684,317.766 337.545,318.285 339.800 C 320.099 347.676,320.243 348.237,320.409 348.069 C 320.501 347.976,321.655 345.349,322.974 342.231 C 324.293 339.113,325.420 336.513,325.479 336.454 C 325.538 336.395,328.430 336.594,331.904 336.896 C 335.379 337.198,338.262 337.405,338.311 337.356 C 338.360 337.307,336.204 335.365,333.520 333.041 L 328.640 328.816 331.122 322.964 C 332.487 319.746,333.581 317.042,333.552 316.955 C 333.523 316.868,331.045 318.283,328.045 320.098 C 325.045 321.914,322.546 323.400,322.491 323.400 C 322.435 323.400,320.345 321.629,317.845 319.465 C 315.345 317.301,313.143 315.397,312.950 315.234 C 312.757 315.071,312.600 315.019,312.599 315.119 M116.225 346.385 L 112.350 349.754 107.862 347.057 C 105.393 345.574,103.332 344.402,103.281 344.452 C 103.231 344.503,104.103 346.710,105.219 349.357 L 107.248 354.170 106.574 354.757 C 100.677 359.892,99.368 361.089,99.574 361.158 C 99.709 361.203,102.070 361.041,104.821 360.798 C 107.572 360.555,109.852 360.389,109.886 360.428 C 109.921 360.468,110.781 362.480,111.798 364.900 C 113.853 369.793,113.987 370.080,114.140 369.927 C 114.199 369.868,114.763 367.608,115.395 364.905 C 116.026 362.202,116.592 359.941,116.652 359.881 C 116.712 359.821,119.060 359.574,121.869 359.331 C 124.678 359.089,127.022 358.844,127.079 358.788 C 127.135 358.731,125.161 357.474,122.691 355.994 C 120.221 354.514,118.200 353.194,118.200 353.060 C 118.200 352.926,118.695 350.682,119.300 348.073 C 120.477 342.996,120.477 342.996,120.250 343.008 C 120.168 343.012,118.356 344.532,116.225 346.385 M279.600 343.165 C 279.600 343.255,280.095 345.464,280.700 348.073 C 281.305 350.682,281.800 352.926,281.800 353.060 C 281.800 353.194,279.779 354.514,277.309 355.994 C 274.839 357.474,272.865 358.731,272.921 358.788 C 272.978 358.844,275.322 359.089,278.131 359.331 C 280.940 359.574,283.288 359.821,283.348 359.881 C 283.408 359.941,283.974 362.202,284.605 364.905 C 285.237 367.608,285.801 369.868,285.860 369.927 C 286.013 370.080,286.147 369.793,288.202 364.900 C 289.219 362.480,290.079 360.468,290.114 360.428 C 290.148 360.389,292.428 360.555,295.179 360.798 C 297.930 361.041,300.293 361.202,300.429 361.157 C 300.636 361.088,299.123 359.705,293.426 354.755 L 292.752 354.170 294.781 349.357 C 295.897 346.710,296.769 344.503,296.719 344.452 C 296.668 344.402,294.607 345.574,292.138 347.057 L 287.650 349.754 283.775 346.385 C 280.054 343.150,279.600 342.799,279.600 343.165 M151.223 363.484 L 148.147 366.159 144.673 364.047 C 142.762 362.885,141.155 361.979,141.101 362.032 C 141.047 362.086,141.594 363.518,142.316 365.215 C 143.038 366.912,143.753 368.591,143.903 368.948 L 144.178 369.595 141.139 372.228 C 137.725 375.186,137.638 375.290,138.726 375.127 C 139.379 375.029,143.215 374.703,145.568 374.545 L 146.235 374.500 147.787 378.163 C 148.641 380.177,149.417 381.824,149.512 381.822 C 149.606 381.821,150.081 380.082,150.567 377.960 C 151.052 375.837,151.471 374.075,151.496 374.045 C 151.522 374.015,153.356 373.841,155.572 373.658 C 157.787 373.476,159.600 373.257,159.600 373.173 C 159.600 373.088,158.070 372.103,156.200 370.983 C 154.309 369.850,152.800 368.818,152.800 368.657 C 152.800 368.377,154.325 361.555,154.501 361.050 C 154.679 360.538,154.227 360.873,151.223 363.484 M245.499 361.050 C 245.675 361.555,247.200 368.377,247.200 368.657 C 247.200 368.818,245.691 369.850,243.800 370.983 C 241.930 372.103,240.400 373.088,240.400 373.173 C 240.400 373.257,242.213 373.476,244.428 373.658 C 246.644 373.841,248.478 374.015,248.504 374.045 C 248.529 374.075,248.948 375.837,249.433 377.960 C 249.919 380.082,250.394 381.821,250.488 381.822 C 250.583 381.824,251.359 380.177,252.213 378.163 L 253.765 374.500 254.432 374.545 C 256.785 374.703,260.621 375.029,261.274 375.127 C 262.362 375.290,262.275 375.186,258.861 372.228 L 255.822 369.595 256.097 368.948 C 256.247 368.591,256.962 366.912,257.684 365.215 C 258.406 363.518,258.953 362.086,258.899 362.032 C 258.845 361.979,257.238 362.885,255.327 364.047 L 251.853 366.159 248.777 363.484 C 245.773 360.873,245.321 360.538,245.499 361.050 M184.992 375.090 L 182.884 376.962 180.434 375.456 C 179.086 374.628,177.930 374.003,177.865 374.068 C 177.800 374.133,178.257 375.375,178.881 376.827 C 179.505 378.279,179.938 379.519,179.843 379.583 C 179.179 380.031,175.607 383.273,175.688 383.355 C 175.744 383.410,177.057 383.344,178.606 383.206 C 180.156 383.069,181.452 382.989,181.487 383.028 C 181.522 383.068,182.019 384.225,182.592 385.600 C 183.166 386.975,183.706 388.175,183.794 388.267 C 183.927 388.406,184.666 385.624,185.119 383.276 C 185.253 382.582,185.120 382.612,189.450 382.280 C 191.643 382.111,191.672 382.184,188.696 380.428 C 187.323 379.618,186.200 378.912,186.200 378.860 C 186.200 378.807,186.470 377.596,186.800 376.168 C 187.646 372.508,187.798 372.598,184.992 375.090 M212.600 373.386 C 212.600 373.488,212.870 374.740,213.200 376.168 C 213.530 377.596,213.800 378.807,213.800 378.860 C 213.800 378.912,212.677 379.618,211.304 380.428 C 208.328 382.184,208.357 382.111,210.550 382.280 C 214.880 382.612,214.747 382.582,214.881 383.276 C 215.334 385.624,216.073 388.406,216.206 388.267 C 216.294 388.175,216.834 386.975,217.408 385.600 C 217.981 384.225,218.478 383.068,218.513 383.028 C 218.548 382.989,219.844 383.069,221.394 383.206 C 222.943 383.344,224.256 383.410,224.312 383.355 C 224.393 383.273,220.821 380.031,220.157 379.583 C 220.062 379.519,220.495 378.279,221.119 376.827 C 221.743 375.375,222.200 374.133,222.135 374.068 C 222.070 374.003,220.914 374.628,219.567 375.456 L 217.117 376.961 214.978 375.081 C 212.850 373.210,212.600 373.031,212.600 373.386 " stroke="none" fill="#000000" fill-rule="evenodd"></path></g></svg>