<?xml version="1.0" standalone="no"?>
<!DOCTYPE svg PUBLIC "-//W3C//DTD SVG 20010904//EN"
 "http://www.w3.org/TR/2001/REC-SVG-20010904/DTD/svg10.dtd">
<svg version="1.0" xmlns="http://www.w3.org/2000/svg"
 width="2000.000000pt" height="2000.000000pt" viewBox="0 0 2000.000000 2000.000000"
 preserveAspectRatio="xMidYMid meet">

<g transform="translate(0.000000,2000.000000) scale(0.100000,-0.100000)"
fill="#000000" stroke="none">
<path d="M9745 18610 l-230 -230 -327 0 -328 0 0 -327 0 -328 -232 -232 -233
-233 233 -233 232 -232 0 -149 0 -148 -25 16 -25 16 0 -220 0 -220 306 0 c306
0 306 0 283 20 l-24 19 70 1 70 0 180 -181 180 -181 -95 67 -95 67 147 -148
147 -148 26 24 c23 22 24 26 10 36 -14 11 15 44 211 243 l227 231 328 0 329 0
0 327 0 328 232 232 233 233 -233 233 -232 232 0 328 0 327 -328 0 -327 0
-230 230 c-126 127 -234 230 -240 230 -6 0 -114 -103 -240 -230z m993 -280
l312 0 0 -312 0 -313 222 -222 223 -223 -223 -223 -222 -222 0 -313 0 -312
-312 0 -313 0 -217 -217 -218 -218 -223 223 -222 222 -138 0 -138 0 -54 40
c-52 38 -57 40 -130 40 l-75 0 0 55 c0 53 -1 55 -45 85 l-45 31 0 186 0 186
-220 214 -220 215 220 226 220 227 0 313 0 312 313 0 312 0 220 220 220 220
220 -220 220 -220 313 0z"/>
<path d="M9780 18415 l-195 -195 -280 0 -280 0 3 -277 3 -277 -203 -203 -203
-203 203 -203 202 -202 0 -278 0 -277 277 0 278 0 202 -202 203 -202 196 202
196 202 285 0 286 0 -6 278 -5 277 201 203 202 202 -203 203 -202 202 0 278 0
277 -278 0 -277 0 -195 195 c-107 107 -199 195 -205 195 -6 0 -98 -88 -205
-195z m303 -565 l98 -300 97 0 c107 0 526 -12 529 -15 2 -1 -110 -84 -247
-185 -138 -101 -250 -188 -250 -194 0 -5 43 -142 96 -304 52 -162 94 -295 92
-297 -2 -1 -117 80 -257 181 -140 101 -257 184 -261 184 -4 0 -121 -83 -261
-184 -139 -102 -255 -183 -258 -181 -2 3 40 140 94 306 54 165 94 304 89 308
-5 4 -123 91 -263 192 l-254 184 326 3 326 2 98 300 c53 165 100 300 103 300
3 0 50 -135 103 -300z"/>
<path d="M3092 16985 c3 -3 63 -12 134 -20 1459 -171 2886 -1037 4019 -2440
256 -317 574 -776 799 -1155 830 -1393 1442 -3088 1847 -5112 38 -191 69 -350
69 -353 0 -3 -44 -5 -98 -5 l-99 0 -109 128 c-262 307 -585 595 -934 834 -137
94 -481 302 -648 392 -948 510 -2334 869 -3607 936 -331 17 -698 8 -949 -24
-68 -8 -99 -9 -101 -2 -2 6 -127 1507 -277 3336 -179 2180 -274 3294 -276
3235 -3 -105 88 -7258 93 -7263 2 -2 50 6 107 17 155 31 342 58 543 78 227 22
1055 25 1315 5 1172 -91 2261 -337 3070 -695 869 -384 1266 -603 1618 -893
l96 -79 -137 -3 -136 -3 -168 85 c-388 194 -714 318 -1443 549 -774 246 -1466
374 -2450 453 -267 21 -1006 30 -1281 15 -512 -28 -979 -96 -1339 -195 -69
-19 -127 -33 -129 -31 -3 3 -206 6084 -212 6350 -2 50 -4 72 -6 50 -5 -49
-232 -7109 -229 -7112 1 -1 69 20 151 47 661 216 1517 358 2405 400 505 23
1158 1 1745 -61 731 -76 1696 -279 2345 -493 l165 -54 -3517 -1 -3518 -1 0
-1555 0 -1555 8050 0 8050 0 0 1555 0 1555 -3517 1 -3518 1 165 54 c649 214
1614 417 2345 493 587 62 1240 84 1745 61 888 -42 1744 -184 2405 -400 82 -27
150 -48 151 -47 3 3 -224 7062 -229 7112 -2 22 -4 0 -6 -50 -6 -266 -209
-6347 -212 -6350 -2 -2 -60 12 -129 31 -360 99 -827 167 -1339 195 -275 15
-1014 6 -1281 -15 -984 -79 -1676 -207 -2450 -453 -729 -231 -1055 -355 -1443
-549 l-168 -85 -136 3 -137 3 96 79 c352 290 749 509 1618 893 809 358 1898
604 3070 695 260 20 1088 17 1315 -5 201 -20 388 -47 543 -78 57 -11 105 -19
107 -17 5 5 97 7169 93 7268 -2 53 -104 -1148 -276 -3240 -150 -1829 -275
-3330 -277 -3336 -2 -7 -33 -6 -101 2 -251 32 -618 41 -949 24 -1273 -67
-2659 -426 -3607 -936 -167 -90 -511 -298 -648 -392 -349 -239 -672 -527 -934
-835 l-109 -127 -99 0 c-54 0 -98 2 -98 5 0 22 150 749 195 945 626 2732 1658
4851 3055 6274 1039 1058 2246 1696 3484 1841 71 8 131 17 134 20 9 9 -649 5
-843 -5 -1601 -85 -3033 -462 -4115 -1085 -853 -490 -1524 -1175 -1906 -1948
-21 -42 -41 -77 -44 -77 -3 0 -23 35 -44 77 -21 43 -68 129 -104 193 -544 959
-1466 1701 -2728 2196 -918 360 -2014 581 -3189 644 -194 10 -852 14 -843 5z
m9679 -9505 c25 -14 24 -39 -3 -94 l-22 -45 -56 6 c-43 4 -66 1 -93 -12 -21
-9 -37 -21 -37 -25 0 -11 110 -40 151 -40 19 0 51 4 72 9 20 5 37 6 37 2 0 -3
-10 -34 -22 -68 l-22 -62 -60 -10 c-84 -15 -158 -54 -207 -109 l-42 -47 6 46
c4 26 14 63 23 82 17 35 17 36 -9 67 -71 84 5 247 137 294 49 17 120 20 147 6z
m-585 -362 l72 -68 -79 -71 -79 -71 -32 27 c-18 16 -64 56 -101 91 l-69 64 79
74 78 74 30 -26 c17 -15 62 -57 101 -94z m5134 -64 c0 -7 -143 -139 -153 -141
-7 -1 -55 38 -107 88 l-95 90 79 74 78 74 99 -91 c55 -50 99 -93 99 -94z
m-3978 61 c-6 -48 13 -72 118 -156 55 -43 88 -75 83 -82 -11 -20 -95 -130
-116 -154 -15 -17 -23 -20 -34 -12 -10 9 -29 -6 -87 -67 l-75 -78 55 -68 c30
-37 63 -83 74 -101 l21 -35 -59 -158 -59 -159 -291 -3 c-272 -2 -292 -1 -292
15 0 10 9 85 21 167 17 125 24 153 41 165 48 33 208 175 206 182 -2 4 -30 28
-62 53 l-60 46 -26 -32 c-27 -32 -28 -32 -53 -15 -31 20 -121 126 -142 167
-22 43 -18 103 11 178 31 79 68 132 92 132 44 0 175 -116 300 -265 41 -49 78
-91 81 -93 8 -3 71 99 71 115 0 6 -7 16 -15 23 -8 7 -15 26 -15 43 0 26 16 46
103 129 56 53 104 97 107 98 4 0 4 -16 2 -35z m-8104 -440 l7 -290 52 -5 c28
-3 181 -3 340 0 l288 5 -45 45 c-47 47 -100 70 -159 70 -17 0 -31 3 -31 8 0 4
30 71 66 149 60 127 71 144 98 152 130 42 327 40 421 -3 74 -33 93 -50 116
-101 35 -77 16 -152 -69 -264 -23 -30 -40 -56 -39 -57 1 -1 149 -5 330 -9
l327 -7 0 59 c-1 32 -9 129 -19 216 -17 145 -20 159 -45 182 -14 13 -26 35
-26 48 0 24 146 257 162 257 4 0 8 -12 8 -27 0 -47 38 -80 138 -123 51 -22 97
-40 103 -40 12 0 13 3 -38 -127 -32 -81 -40 -93 -60 -93 -21 0 -23 -3 -16 -27
4 -16 7 -93 7 -173 1 -138 -1 -149 -32 -239 -18 -51 -46 -127 -63 -167 l-31
-74 -481 0 -482 0 -18 42 -17 43 -38 -43 -37 -43 -448 3 -449 3 -25 29 c-26
31 -27 30 -54 -16 -9 -17 -34 -18 -290 -18 l-280 0 -36 -80 c-20 -44 -40 -80
-45 -80 -5 0 -100 54 -213 120 -113 66 -210 123 -217 125 -8 3 -25 -14 -41
-40 l-29 -45 -227 0 -228 0 -52 -117 c-86 -195 -95 -207 -214 -263 -134 -64
-210 -83 -327 -84 -110 -1 -169 20 -233 82 -115 111 -135 269 -62 488 23 69
114 270 100 219 -14 -48 -27 -184 -22 -234 11 -131 68 -217 157 -241 56 -15
147 -7 226 20 68 24 156 78 151 94 -7 20 -129 55 -194 56 -35 0 -63 3 -63 8 0
4 30 73 67 154 l68 147 235 1 c129 0 332 3 451 7 l215 6 37 72 c49 94 141 184
233 227 83 39 196 50 256 25 61 -26 72 -53 76 -197 l4 -127 244 -8 c134 -3
248 -4 254 0 6 4 10 94 10 258 l1 252 117 124 117 124 3 -84 c2 -46 6 -214 10
-374z m2367 298 l27 -152 -20 -28 c-20 -28 -20 -36 -11 -172 11 -169 0 -314
-32 -392 -24 -62 -90 -158 -146 -211 l-39 -38 -1 178 c-1 97 -11 293 -22 436
l-21 258 116 140 c64 76 118 137 120 136 1 -2 15 -72 29 -155z m3065 130 c0
-47 38 -80 138 -123 51 -22 97 -40 103 -40 12 0 13 3 -38 -128 -33 -84 -39
-93 -60 -89 -22 4 -22 2 -16 -37 13 -75 9 -288 -6 -341 -8 -27 -36 -107 -63
-177 l-49 -128 -330 0 -330 0 -17 31 c-36 66 -38 66 -54 18 l-15 -44 -191 -3
-191 -2 -22 42 -21 42 -29 -35 c-16 -19 -29 -37 -29 -41 0 -4 -70 -9 -156 -10
l-156 -3 -19 -74 c-10 -41 -29 -97 -42 -125 -21 -45 -32 -55 -93 -88 -38 -20
-112 -51 -164 -69 -79 -27 -111 -32 -190 -33 -85 -1 -101 2 -152 27 -154 76
-218 248 -173 468 16 80 79 255 110 309 14 23 15 21 8 -30 -5 -30 -8 -111 -8
-180 0 -119 1 -127 29 -178 48 -86 130 -119 251 -101 58 9 213 78 263 116 l22
18 -23 70 c-28 82 -79 187 -114 233 l-24 32 88 104 c48 58 93 103 98 102 17
-4 66 -91 101 -178 l33 -83 131 -3 c76 -1 130 1 130 7 0 5 -13 39 -30 76 -16
37 -30 71 -30 76 0 11 152 211 156 206 2 -2 39 -82 83 -178 l79 -174 91 -3
c51 -1 91 1 91 6 0 6 -18 37 -41 71 l-41 61 82 111 c80 106 83 109 102 92 10
-9 38 -55 60 -100 37 -73 42 -94 46 -168 l5 -85 268 0 269 0 0 53 c-1 28 -9
126 -19 216 -18 156 -20 165 -45 184 -42 31 -34 61 51 190 42 65 80 117 85
117 4 0 8 -12 8 -27z m3220 -141 c23 -142 23 -143 3 -170 -17 -24 -18 -37 -12
-112 28 -330 -7 -479 -149 -630 l-67 -72 -2 203 c0 112 -10 310 -21 439 l-19
234 115 138 c75 90 118 134 122 126 4 -7 17 -77 30 -156z m2861 -579 c20 -10
90 -11 298 -5 l273 7 -44 66 -45 67 79 103 c44 57 84 105 88 107 15 5 78 -89
102 -153 45 -118 22 -279 -68 -483 l-23 -53 -435 3 -436 3 -32 33 -33 32 -3
383 -2 382 122 129 123 129 5 -369 5 -369 26 -12z m-5207 206 l122 -214 289 4
c160 2 292 5 294 7 3 3 -14 32 -38 65 -23 34 -40 65 -39 69 8 19 154 209 161
210 16 0 48 -45 85 -120 35 -71 37 -80 37 -175 0 -105 -7 -134 -77 -317 l-29
-78 -384 0 -384 0 -23 40 c-13 22 -25 40 -28 40 -3 0 -15 -18 -28 -41 l-23
-40 -223 3 c-241 3 -255 6 -293 64 -36 55 -14 184 54 318 l29 58 12 -39 c18
-58 38 -66 196 -71 l138 -5 -12 24 c-7 13 -35 61 -62 107 l-50 82 38 68 c88
161 96 174 106 164 5 -5 65 -106 132 -223z m4604 132 c51 -37 111 -106 138
-161 23 -45 28 -68 28 -130 1 -64 -6 -95 -48 -215 -26 -77 -52 -148 -57 -157
-9 -16 -32 -18 -270 -18 -243 0 -260 1 -255 18 3 9 22 83 42 165 l36 147 179
0 c99 0 179 2 179 5 0 16 -32 64 -62 91 -35 34 -107 74 -132 74 -29 0 -25 20
29 134 l54 116 56 -25 c31 -13 68 -33 83 -44z m-603 25 c65 -27 66 -46 9 -234
l-25 -82 -27 18 c-37 26 -88 42 -132 42 -37 0 -142 -46 -147 -65 -2 -6 63 -39
144 -74 174 -75 187 -84 180 -128 -7 -43 -74 -192 -149 -330 l-60 -111 -78
-36 c-224 -102 -403 -126 -516 -68 -54 28 -119 98 -144 154 -43 98 -36 236 21
410 26 81 97 233 84 178 -14 -53 -17 -250 -6 -297 28 -114 97 -166 217 -166
39 1 97 8 130 18 68 19 170 74 157 85 -4 3 -62 28 -128 55 -66 26 -128 55
-139 64 -32 28 -17 98 49 227 85 169 203 290 328 335 63 22 183 25 232 5z
m-593 -1346 c4 0 27 17 51 39 l42 39 100 -94 100 -94 -80 -74 -80 -73 -44 38
-45 38 -46 -39 -45 -38 -35 30 c-19 17 -66 60 -103 96 l-68 65 78 72 78 72 44
-38 c24 -22 48 -39 53 -39z m-12137 -70 c5 0 28 18 50 40 l41 40 102 -92 103
-93 -76 -72 c-42 -40 -81 -73 -86 -73 -5 0 -27 16 -49 36 l-40 36 -40 -36
c-22 -20 -44 -36 -50 -36 -11 0 -200 171 -200 181 0 3 34 39 76 79 l76 72 42
-41 c23 -23 46 -41 51 -41z"/>
<path d="M13025 6412 l-49 -37 78 -3 c43 -2 81 0 84 3 3 3 -10 21 -28 40 l-35
34 -50 -37z"/>
<path d="M4161 6434 c-70 -30 -69 -33 31 -92 51 -30 99 -56 106 -59 9 -4 12
13 12 65 0 62 -3 73 -22 86 -28 20 -82 20 -127 0z"/>
<path d="M260 6859 c0 -7 156 -357 346 -780 l346 -768 -346 -769 c-190 -423
-346 -772 -346 -775 0 -4 569 -7 1265 -7 l1265 0 0 320 0 320 -612 2 -613 3
-3 1233 -2 1232 -650 0 c-478 0 -650 -3 -650 -11z"/>
<path d="M18438 5638 l-3 -1233 -612 -3 -613 -2 0 -320 0 -320 1265 0 c696 0
1265 3 1265 7 0 3 -156 352 -346 775 l-346 769 346 768 c190 423 346 773 346
780 0 8 -172 11 -650 11 l-650 0 -2 -1232z"/>
<path d="M4965 4364 c22 -19 107 -90 189 -157 635 -522 1329 -977 2096 -1375
836 -434 1886 -822 2627 -973 129 -26 141 -25 409 36 694 157 1541 470 2329
860 877 434 1638 931 2359 1539 l119 101 -352 3 -352 2 -107 -83 c-522 -405
-1145 -794 -1792 -1121 -791 -399 -1696 -735 -2361 -875 l-135 -28 -145 33
c-701 163 -1487 455 -2259 840 -654 326 -1212 670 -1778 1096 l-183 138 -352
0 -352 -1 40 -35z"/>
<path d="M6430 4370 c25 -16 81 -54 125 -84 138 -93 521 -336 530 -336 3 0 30
-16 60 -35 202 -129 842 -455 1150 -585 55 -23 123 -53 150 -65 132 -61 472
-189 770 -291 168 -58 462 -144 642 -188 l142 -35 103 24 c360 81 980 285
1403 462 563 236 1063 489 1575 800 106 64 522 335 544 355 6 4 -1621 8 -3614
8 l-3624 0 44 -30z"/>
<path d="M4116 4025 c-131 -113 -240 -204 -244 -202 -4 3 -127 77 -274 166
-148 88 -268 158 -268 155 0 -3 54 -133 120 -289 66 -157 120 -289 120 -294 0
-5 -108 -102 -240 -217 -132 -114 -239 -208 -238 -209 2 -1 145 11 318 26 173
15 318 25 321 21 4 -4 60 -133 124 -287 65 -154 121 -283 124 -287 4 -4 38
128 76 294 38 165 74 306 81 312 6 7 130 21 300 35 159 14 297 27 307 31 14 4
-52 49 -252 170 -200 120 -270 168 -267 179 22 79 136 594 133 597 -2 3 -111
-88 -241 -201z"/>
<path d="M15640 4223 c0 -7 51 -230 135 -589 4 -18 -31 -42 -266 -184 -200
-121 -266 -166 -252 -170 10 -4 148 -17 307 -31 170 -14 294 -28 300 -35 7 -6
43 -147 81 -312 38 -166 72 -298 76 -294 3 4 59 133 124 287 64 154 120 283
124 287 3 4 148 -6 321 -21 173 -15 316 -27 317 -26 2 1 -105 95 -237 209
-132 115 -240 212 -240 217 0 5 54 137 120 294 66 156 120 286 120 289 0 3
-120 -67 -267 -155 -148 -89 -271 -163 -275 -166 -4 -2 -109 86 -235 195 -237
206 -253 219 -253 205z"/>
<path d="M5820 2679 c-114 -99 -201 -168 -210 -166 -8 2 -109 61 -224 130
-116 70 -211 125 -213 123 -2 -1 42 -109 97 -240 l101 -236 -26 -23 c-14 -12
-103 -89 -199 -172 -95 -82 -173 -151 -172 -151 1 -2 400 32 477 40 l47 5 97
-232 c54 -128 101 -235 105 -240 3 -4 30 95 59 220 29 126 56 239 60 253 8 25
10 25 197 42 104 9 222 20 263 23 l73 7 -221 132 c-122 73 -224 135 -227 138
-4 5 96 458 111 506 3 6 3 12 2 12 -1 -1 -90 -77 -197 -171z"/>
<path d="M13984 2839 c16 -47 116 -502 112 -507 -3 -3 -105 -65 -227 -138
l-221 -132 73 -7 c41 -3 159 -14 263 -23 187 -17 189 -17 197 -42 4 -14 31
-127 60 -253 29 -125 56 -224 59 -220 4 5 51 112 105 240 l97 232 47 -5 c77
-8 476 -42 477 -40 1 0 -77 69 -172 151 -96 83 -185 160 -199 172 l-26 23 101
236 c55 131 99 239 97 240 -2 2 -97 -53 -213 -123 -115 -69 -216 -128 -224
-130 -13 -3 -68 41 -349 286 -33 29 -59 47 -57 40z"/>
<path d="M7565 1820 c-83 -72 -153 -130 -157 -130 -4 0 -82 45 -174 100 -91
56 -168 100 -169 98 -2 -2 30 -82 71 -178 40 -96 74 -180 74 -187 0 -6 -68
-70 -151 -142 -90 -78 -143 -131 -132 -131 10 0 90 7 178 15 88 8 172 15 186
15 25 0 31 -12 104 -185 43 -102 79 -184 81 -182 2 1 21 81 43 177 23 96 43
184 46 196 4 19 16 21 176 34 266 20 260 9 61 128 -95 57 -172 107 -172 111 0
5 20 93 44 197 24 104 43 190 42 191 -1 1 -69 -56 -151 -127z"/>
<path d="M12283 1935 c9 -29 87 -366 87 -376 0 -4 -77 -54 -172 -111 -199
-119 -205 -108 61 -128 160 -13 172 -15 176 -34 3 -12 23 -100 46 -196 22 -96
41 -176 43 -177 2 -2 38 80 81 182 73 173 79 185 104 185 14 0 98 -7 186 -15
88 -8 168 -15 178 -15 11 0 -42 53 -132 131 -83 72 -151 136 -151 142 0 7 34
91 74 187 41 96 73 176 71 178 -1 2 -78 -43 -170 -98 -92 -56 -173 -99 -179
-97 -6 3 -70 56 -142 118 -179 156 -168 148 -161 124z"/>
<path d="M9255 1240 c-55 -49 -104 -89 -108 -90 -5 0 -61 31 -125 70 -64 38
-118 68 -120 66 -1 -2 20 -58 47 -124 28 -66 51 -126 50 -133 0 -8 -47 -54
-105 -103 -57 -49 -103 -90 -102 -91 3 -2 152 10 239 19 l46 5 58 -136 58
-136 32 138 c18 75 38 141 45 145 7 4 63 11 124 15 61 4 119 11 130 14 14 6
-9 24 -103 80 -93 55 -121 76 -117 89 16 51 57 243 54 251 -1 5 -48 -30 -103
-79z"/>
<path d="M10640 1318 c0 -15 43 -209 56 -250 4 -13 -24 -34 -117 -89 -94 -56
-117 -74 -103 -80 11 -3 69 -10 130 -14 61 -4 117 -11 124 -15 7 -4 27 -70 45
-145 l32 -138 58 136 58 136 46 -5 c87 -9 236 -21 239 -19 1 1 -45 42 -102 91
-58 49 -105 95 -105 103 -1 7 22 67 50 133 27 66 48 122 47 124 -2 2 -53 -26
-113 -63 -61 -36 -116 -68 -123 -70 -10 -5 -76 48 -194 156 -22 19 -28 21 -28
9z"/>
</g>
</svg>
